PathFileType	3	(X/Y/Z)	D:\minhoCalibration\240510\subject2_KPNP\preferred\preferred01.trc
DataRate	CameraRate	NumFrames	NumMarkers	Units	OrigDataRate	OrigDataStartFrame	OrigNumFrames
200.0	200.0	27	10	mm	200.0	468	233	
Frame#	Time	Left_Ankle_Outer1			Left_Ankle_Inner1			Left_Knee_Outer1			Left_Knee_Inner1			Left_Wrist1			Right_Wrist1			Right_Knee_Inner1			Right_Knee_Outer1			Right_Ankle_Inner1			Right_Ankle_Outer1			
		X1	Y1	Z1	X2	Y2	Z2	X3	Y3	Z3	X4	Y4	Z4	X5	Y5	Z5	X6	Y6	Z6	X7	Y7	Z7	X8	Y8	Z8	X9	Y9	Z9	X10	Y10	Z10	
468	2.33	-419.52841	102.23024	-824.57007	-439.9342	100.4026	-772.43323	-222.24225	507.8931	-750.63733	-281.81644	483.43265	-676.62097	-253.90402	993.0636	-769.41199	-553.31464	1013.1716	-605.87915	-474.70041	495.80957	-558.51813	-560.72717	525.41089	-541.26202	-521.89178	133.84837	-740.92926	-616.50555	141.49158	-723.42474
469	2.335	-418.9603	101.81842	-825.80396	-440.08713	99.507149	-774.63605	-221.16751	507.03018	-749.90985	-280.28818	482.24362	-675.85449	-254.39807	992.74127	-767.80499	-556.1358	1009.936	-608.22333	-477.13721	494.23428	-567.37524	-563.84814	522.76276	-550.65265	-520.22614	129.78764	-744.98132	-616.03748	136.88071	-729.63409
470	2.34	-418.44684	101.54683	-826.97168	-439.80173	99.362198	-775.62927	-219.91003	506.21945	-749.20734	-278.70599	481.01749	-675.16895	-254.92143	992.17584	-766.42181	-558.88373	1006.9653	-610.745	-479.75302	493.40057	-574.96704	-566.896	520.68616	-559.35388	-519.01709	126.01249	-747.83362	-615.12793	132.80743	-733.95996
471	2.345	-418.07532	101.25121	-827.93939	-440.32019	98.34166	-777.57794	-219.02304	505.34915	-748.47498	-277.26617	479.8399	-674.46454	-255.41133	991.52435	-765.00159	-561.5238	1004.2556	-613.54059	-482.02875	492.84912	-581.30865	-569.71942	519.15857	-567.56451	-518.64459	122.88039	-750.75403	-614.59546	129.02924	-737.38184
472	2.35	-417.84573	101.06133	-828.81885	-439.66843	99.623909	-776.65723	-218.01054	504.55219	-747.70013	-276.0535	478.76999	-673.72394	-255.90649	990.69617	-763.65295	-564.15002	1001.8791	-616.46301	-484.44943	492.31946	-586.42145	-572.39734	518.22028	-575.22211	-518.00775	119.39851	-752.18365	-614.28674	125.56447	-740.06549
473	2.355	-417.7001	100.9481	-829.60834	-440.03394	98.971565	-777.95496	-216.99794	503.7858	-746.93542	-275.06094	477.88306	-673.06	-256.14139	990.33917	-762.68097	-566.61633	999.71112	-619.52039	-486.85764	491.29114	-592.51569	-574.98779	517.35822	-582.65405	-517.96161	116.36075	-754.16998	-614.28528	122.60571	-742.53516
474	2.36	-417.58817	100.85519	-830.26111	-440.0116	98.450371	-779.24701	-216.08699	503.07291	-746.04828	-274.19525	476.92563	-672.37299	-257.15851	989.03827	-760.73065	-569.08392	997.85657	-622.51337	-489.13638	490.48065	-598.21521	-577.59973	516.4801	-589.93164	-518.21838	114.14776	-755.38068	-614.73669	119.94459	-744.64972
475	2.365	-417.4975	100.82692	-830.74823	-439.75052	98.729584	-779.58972	-215.31194	502.36606	-745.05536	-273.52264	476.14474	-671.64362	-257.45062	988.38556	-759.448	-571.23322	996.17041	-625.60376	-491.28738	489.95343	-603.18372	-580.07178	515.48822	-596.80286	-518.54156	111.7379	-756.43268	-615.14014	117.31512	-746.2041
476	2.37	-417.3067	101.20766	-831.44781	-439.64697	98.672165	-780.15582	-214.41629	501.85376	-744.05518	-273.12704	475.56229	-670.82849	-257.9845	987.68219	-758.06604	-573.62323	994.49481	-629.21393	-493.28079	489.49112	-607.44135	-582.40167	514.35645	-603.17657	-519.15179	109.6651	-757.55957	-615.8056	115.2215	-747.34052
477	2.375	-417.32645	100.86641	-831.56195	-439.72638	98.493103	-780.75537	-213.73502	501.42871	-742.82178	-272.96231	475.08624	-669.97461	-258.52502	987.06598	-756.75616	-575.82587	993.8559	-632.28656	-494.93762	488.93579	-611.30182	-584.37549	513.26373	-608.81885	-519.36554	108.24468	-759.03015	-616.474	113.34786	-747.99811
478	2.38	-417.27652	101.18452	-832.06982	-439.76184	98.386353	-781.14325	-213.24144	501.10794	-741.55597	-272.9588	474.93964	-668.99487	-259.10577	986.55566	-755.46545	-577.3678	993.08307	-635.68475	-496.64819	488.35498	-614.94867	-586.04608	512.34802	-613.85925	-520.56793	106.8306	-759.70874	-617.28754	111.89098	-747.94653
479	2.385	-417.0408	101.25321	-832.2926	-440.095	97.962639	-781.73883	-212.71744	500.9874	-740.14374	-273.18362	474.83142	-668.12311	-259.71417	986.29382	-754.53979	-580.28333	992.47144	-638.65198	-498.12796	487.67181	-618.50305	-587.38892	511.69235	-618.11884	-521.89142	105.37408	-760.38776	-618.37939	110.55938	-748.13623
480	2.39	-416.75671	101.36957	-832.40436	-439.58597	98.369202	-781.54706	-212.44424	500.95612	-738.62732	-273.59213	474.96759	-667.06665	-260.66736	986.2171	-753.84796	-581.52521	992.12653	-642.23456	-499.69809	486.73575	-623.06042	-588.42297	511.22916	-621.84491	-522.17731	104.92673	-762.21924	-619.38727	109.29529	-748.42822
481	2.395	-416.41934	101.50218	-832.50189	-439.23608	98.124252	-781.97864	-212.16243	501.13065	-737.10962	-274.36777	475.23447	-666.0686	-261.43506	986.28107	-753.36304	-584.21765	992.07141	-645.22107	-500.54068	486.59131	-625.74646	-589.23914	511.03079	-624.93701	-522.94708	103.97108	-762.68848	-620.08527	107.95121	-748.68774
482	2.4	-416.09384	101.70181	-832.57996	-439.1908	98.515694	-781.72925	-212.04951	501.35446	-735.51917	-275.16113	475.595	-665.05157	-262.37701	986.2467	-752.90015	-586.22571	991.64954	-648.7785	-501.5697	486.22382	-630.33923	-589.88867	510.96344	-627.65613	-523.89026	102.83755	-762.70483	-620.80951	107.52274	-748.96515
483	2.405	-415.76273	101.95603	-832.61688	-439.25201	98.425667	-781.80176	-212.17506	501.64462	-733.88257	-276.1254	475.99622	-664.24908	-263.22388	986.44147	-752.58618	-587.98206	991.99994	-651.20099	-502.03967	486.70773	-633.99475	-590.46375	510.9678	-630.01379	-524.4549	102.46033	-763.04419	-621.20538	106.87074	-749.3418
484	2.41	-415.45685	102.2843	-832.69611	-438.78082	98.735992	-782.06641	-212.21706	502.00076	-732.28009	-277.24902	476.49796	-663.35303	-264.19922	986.8562	-752.63159	-589.75537	992.2204	-653.95941	-502.44235	487.29532	-637.40845	-591.05615	510.95706	-632.11108	-524.62445	102.21655	-763.21295	-621.13013	106.29996	-749.65186
485	2.415	-415.07022	102.64557	-832.77576	-438.87994	99.028	-781.75977	-212.57532	502.32642	-730.86969	-278.43283	477.03098	-662.63019	-265.21176	987.25159	-752.62091	-591.7323	992.45587	-656.67969	-503.01624	488.0271	-640.27985	-591.60101	511.03818	-634.07983	-523.90619	102.40543	-763.93744	-621.26117	106.29186	-749.99109
486	2.42	-414.71957	103.07632	-832.86444	-436.01135	98.978592	-784.51385	-212.79434	502.92337	-729.5979	-279.6059	477.56152	-662.00458	-266.13959	987.8136	-752.9259	-593.78815	992.42139	-659.16125	-503.50714	488.79861	-642.66071	-592.28894	511.37781	-635.89795	-523.74811	102.1627	-763.85016	-620.94916	105.93785	-750.57526
487	2.425	-414.34186	103.51991	-833.01544	-437.97385	99.697083	-783.03528	-213.40726	503.30835	-728.41357	-280.99606	478.14066	-661.48993	-267.15112	988.71393	-753.36243	-595.3255	993.23352	-661.633	-504.36465	489.68268	-644.36139	-593.0473	511.86102	-637.81085	-523.36523	102.35438	-763.94568	-620.66931	106.03815	-750.77448
488	2.43	-414.01685	103.95281	-833.10278	-438.18335	100.15784	-782.23193	-214.31401	503.92096	-727.41608	-282.22327	478.67365	-661.21454	-267.99417	989.5473	-753.75934	-596.82428	993.6701	-663.88391	-505.30325	490.74527	-645.31866	-593.85779	512.53766	-639.96246	-523.03534	102.13913	-763.56049	-620.31195	106.24083	-750.99823
489	2.435	-413.76367	104.4705	-833.18433	-435.65057	99.701515	-785.20276	-215.25214	504.66913	-726.69556	-283.55231	479.29736	-661.01184	-269.10468	990.19946	-754.25781	-597.54102	994.30035	-665.56671	-506.23779	491.79984	-646.1217	-594.62531	513.4389	-642.31995	-522.33533	102.50076	-763.50208	-619.93085	106.27596	-751.30396
490	2.44	-413.50217	104.73978	-833.20404	-436.86038	101.01101	-782.73047	-216.59245	505.38422	-726.14038	-285.04929	479.992	-660.93066	-269.94284	991.2337	-754.88782	-599.06982	994.58691	-668.1983	-507.25729	492.28757	-646.71478	-595.45361	514.42963	-644.76276	-522.70679	102.02733	-763.17975	-619.63019	106.23393	-751.65186
491	2.445	-413.35031	105.11089	-833.27832	-434.73145	100.06667	-785.70087	-217.89134	506.30057	-725.87445	-286.60806	480.69717	-660.96838	-270.96014	992.2005	-755.47943	-600.33606	994.80243	-668.92029	-508.61801	493.07034	-646.98376	-596.15112	515.28766	-647.24634	-522.95483	101.92756	-762.54431	-619.49255	106.28957	-751.81244
492	2.45	-413.22366	105.39773	-833.31427	-435.27902	101.11848	-784.66223	-219.52509	507.478	-726.02271	-288.28503	481.61136	-661.33533	-271.80548	993.31262	-756.43414	-601.66486	995.41882	-671.36353	-509.45343	493.53424	-647.76465	-596.77167	516.01471	-649.58179	-522.80762	101.87093	-762.47614	-619.43188	106.24892	-751.96045
493	2.455	-413.14459	105.65295	-833.31909	-436.93384	102.74565	-781.4444	-221.19235	508.21817	-726.07068	-290.02875	482.47821	-661.83459	-272.82651	994.38776	-757.1214	-603.04962	995.96094	-672.84351	-510.4733	493.94263	-648.56573	-597.24908	516.50018	-651.61597	-522.44757	102.22356	-763.06561	-619.50488	106.29937	-751.99872
494	2.46	-413.1503	105.86555	-833.36627	-436.6944	101.77869	-782.98865	-222.53621	509.56888	-726.68292	-291.94473	483.56281	-662.29962	-273.66806	995.55457	-758.03479	-604.49109	996.64978	-676.33221	-510.65665	494.41791	-650.21283	-597.50177	516.87958	-653.36945	-522.75195	102.11483	-762.74365	-619.62561	106.16084	-752.07745
